<svg xmlns="http://www.w3.org/2000/svg" viewBox="0 0 172 32"><path d="M31 24.3h-8.9v-1.1c0.2 0 0.4-0.1 0.7-0.1 0.2 0 0.4-0.1 0.6-0.1 0.2-0.1 0.4-0.3 0.4-0.5 0.1-0.2 0.1-0.5 0.1-0.9v-7c0-1-0.2-1.8-0.5-2.3 -0.4-0.5-0.9-0.8-1.6-0.8 -0.4 0-0.8 0.1-1.1 0.2S20 12 19.7 12.2c-0.3 0.2-0.5 0.4-0.7 0.6 -0.2 0.2-0.3 0.4-0.4 0.5v8c0 0.4 0 0.7 0.1 0.9 0.1 0.2 0.2 0.4 0.5 0.5 0.2 0.1 0.3 0.2 0.5 0.2 0.2 0.1 0.4 0.1 0.6 0.2v1.1h-8.5v-1.1c0.2 0 0.4 0 0.7-0.1s0.5-0.1 0.6-0.1c0.2-0.1 0.3-0.3 0.4-0.5 0.1-0.2 0.1-0.5 0.1-0.9v-7c0-1-0.2-1.8-0.5-2.3 -0.4-0.5-0.9-0.8-1.6-0.8 -0.4 0-0.8 0.1-1.1 0.2S9.7 12 9.5 12.2c-0.3 0.2-0.5 0.4-0.7 0.6s-0.3 0.4-0.4 0.5v8c0 0.3 0 0.6 0.1 0.9s0.2 0.4 0.5 0.5C9.2 22.9 9.3 23 9.5 23c0.2 0.1 0.4 0.1 0.7 0.2v1.1h-9v-1.1c0.3 0 0.5 0 0.8-0.1 0.2 0 0.5-0.1 0.6-0.1 0.3-0.1 0.5-0.3 0.7-0.5 0.1-0.2 0.2-0.5 0.2-0.9v-8.7c0-0.3-0.1-0.6-0.3-0.9 -0.2-0.3-0.4-0.5-0.6-0.7 -0.2-0.1-0.4-0.2-0.7-0.3 -0.3-0.1-0.6-0.1-0.9-0.2V9.6l7.1-0.4 0.2 0.2v2.1h0.1c0.3-0.2 0.6-0.5 1-0.9 0.4-0.3 0.7-0.6 1.1-0.8 0.4-0.2 0.8-0.4 1.4-0.6C12.5 9.1 13.2 9 13.9 9c1.1 0 2.1 0.2 2.9 0.7 0.8 0.5 1.3 1.2 1.6 2h0.1c0.3-0.3 0.6-0.6 1.1-1 0.4-0.4 0.8-0.7 1.2-0.9 0.4-0.2 0.9-0.5 1.5-0.6C22.8 9.1 23.4 9 24.1 9c1.5 0 2.7 0.4 3.5 1.3 0.8 0.9 1.2 2.2 1.2 3.8v7.3c0 0.4 0.1 0.7 0.2 0.9s0.3 0.4 0.6 0.5c0.2 0.1 0.4 0.1 0.6 0.2 0.2 0.1 0.5 0.1 0.8 0.2V24.3z"/><path d="M46.9 11.2c0.7 0.7 1.3 1.5 1.7 2.5 0.4 1 0.6 2 0.6 3.1 0 1.1-0.2 2.2-0.6 3.1s-0.9 1.8-1.7 2.5c-0.8 0.7-1.7 1.3-2.8 1.7 -1.1 0.4-2.3 0.6-3.8 0.6 -1.2 0-2.3-0.2-3.4-0.5s-1.9-0.9-2.7-1.6c-0.8-0.7-1.4-1.5-1.8-2.5 -0.4-1-0.7-2.1-0.7-3.3 0-1.2 0.2-2.3 0.6-3.2 0.4-0.9 1-1.8 1.7-2.5 0.7-0.7 1.6-1.2 2.7-1.6C37.9 9.2 39.1 9 40.5 9c1.4 0 2.6 0.2 3.7 0.6C45.2 9.9 46.1 10.5 46.9 11.2zM43.1 21.6c0.2-0.6 0.4-1.2 0.5-2 0.1-0.8 0.2-1.7 0.2-2.8 0-0.7 0-1.5-0.1-2.4 -0.1-0.9-0.2-1.6-0.4-2.1 -0.2-0.6-0.6-1.1-1-1.5 -0.4-0.4-1-0.5-1.6-0.5 -0.7 0-1.3 0.2-1.7 0.6 -0.4 0.4-0.8 0.9-1 1.5 -0.2 0.6-0.4 1.2-0.4 2 -0.1 0.8-0.1 1.6-0.1 2.4 0 1.1 0 2 0.1 2.7 0.1 0.7 0.2 1.4 0.5 2.1 0.2 0.6 0.6 1.1 1 1.5s1 0.5 1.6 0.5c0.6 0 1.1-0.2 1.5-0.5C42.5 22.7 42.8 22.2 43.1 21.6z"/><path d="M70.1 24.3h-9v-1.1c0.2 0 0.4 0 0.7-0.1s0.5-0.1 0.6-0.1c0.2-0.1 0.4-0.3 0.4-0.5 0.1-0.2 0.1-0.5 0.1-0.9v-7c0-1-0.2-1.8-0.6-2.3 -0.4-0.5-0.9-0.8-1.7-0.8 -0.4 0-0.8 0.1-1.1 0.2 -0.3 0.1-0.7 0.3-1 0.5 -0.3 0.2-0.5 0.4-0.7 0.6 -0.2 0.2-0.3 0.4-0.4 0.6v8c0 0.3 0 0.6 0.1 0.9s0.3 0.4 0.5 0.5c0.2 0.1 0.4 0.2 0.6 0.2 0.2 0.1 0.5 0.1 0.7 0.2v1.1h-9.1v-1.1c0.2 0 0.5 0 0.8-0.1 0.3 0 0.5-0.1 0.7-0.1 0.3-0.1 0.5-0.3 0.7-0.5s0.2-0.5 0.2-0.9v-8.7c0-0.3-0.1-0.6-0.2-0.9 -0.2-0.3-0.4-0.5-0.6-0.7 -0.2-0.1-0.4-0.2-0.7-0.3 -0.3-0.1-0.6-0.1-0.9-0.2V9.6l7.1-0.4 0.2 0.2v2.2h0.1c0.3-0.2 0.6-0.5 1-0.9 0.4-0.3 0.8-0.6 1.1-0.9 0.4-0.2 0.9-0.4 1.5-0.6C61.7 9.1 62.4 9 63.1 9c1.6 0 2.8 0.5 3.7 1.4 0.8 0.9 1.2 2.1 1.2 3.7v7.3c0 0.4 0.1 0.7 0.2 0.9 0.1 0.2 0.3 0.4 0.6 0.5 0.2 0.1 0.4 0.1 0.6 0.2 0.2 0.1 0.5 0.1 0.8 0.2V24.3z"/><path d="M86 11.2c0.7 0.7 1.3 1.5 1.7 2.5 0.4 1 0.6 2 0.6 3.1 0 1.1-0.2 2.2-0.6 3.1s-0.9 1.8-1.7 2.5c-0.8 0.7-1.7 1.3-2.8 1.7 -1.1 0.4-2.3 0.6-3.8 0.6 -1.2 0-2.3-0.2-3.4-0.5s-1.9-0.9-2.7-1.6c-0.8-0.7-1.4-1.5-1.8-2.5 -0.4-1-0.7-2.1-0.7-3.3 0-1.2 0.2-2.3 0.6-3.2 0.4-0.9 1-1.8 1.7-2.5 0.7-0.7 1.6-1.2 2.7-1.6C77.1 9.2 78.3 9 79.6 9c1.4 0 2.6 0.2 3.7 0.6C84.4 9.9 85.3 10.5 86 11.2zM82.2 21.6c0.2-0.6 0.4-1.2 0.5-2 0.1-0.8 0.2-1.7 0.2-2.8 0-0.7 0-1.5-0.1-2.4 -0.1-0.9-0.2-1.6-0.4-2.1 -0.2-0.6-0.6-1.1-1-1.5 -0.4-0.4-1-0.5-1.6-0.5 -0.7 0-1.3 0.2-1.7 0.6 -0.4 0.4-0.8 0.9-1 1.5 -0.2 0.6-0.4 1.2-0.4 2 -0.1 0.8-0.1 1.6-0.1 2.4 0 1.1 0 2 0.1 2.7 0.1 0.7 0.2 1.4 0.5 2.1 0.2 0.6 0.6 1.1 1 1.5s1 0.5 1.6 0.5c0.6 0 1.1-0.2 1.5-0.5C81.6 22.7 81.9 22.2 82.2 21.6z"/><path d="M98.6 24.3h-9.4v-1.1c0.3 0 0.5 0 0.8-0.1s0.5-0.1 0.7-0.1c0.3-0.1 0.5-0.3 0.7-0.5 0.1-0.2 0.2-0.5 0.2-0.9V5c0-0.4-0.1-0.7-0.2-1.1 -0.2-0.3-0.4-0.6-0.6-0.7 -0.2-0.1-0.5-0.3-0.9-0.4 -0.4-0.1-0.8-0.2-1.1-0.2V1.5l7.5-0.4 0.2 0.2v20c0 0.4 0.1 0.7 0.2 0.9 0.1 0.2 0.3 0.4 0.6 0.5 0.2 0.1 0.4 0.2 0.6 0.2 0.2 0.1 0.5 0.1 0.8 0.2V24.3z"/><path d="M114.5 11.2c0.7 0.7 1.3 1.5 1.7 2.5 0.4 1 0.6 2 0.6 3.1 0 1.1-0.2 2.2-0.6 3.1 -0.4 1-0.9 1.8-1.7 2.5 -0.8 0.7-1.7 1.3-2.8 1.7 -1.1 0.4-2.3 0.6-3.8 0.6 -1.2 0-2.3-0.2-3.4-0.5 -1-0.3-1.9-0.9-2.7-1.6 -0.8-0.7-1.4-1.5-1.8-2.5s-0.7-2.1-0.7-3.3c0-1.2 0.2-2.3 0.6-3.2 0.4-0.9 1-1.8 1.7-2.5 0.7-0.7 1.6-1.2 2.7-1.6 1.1-0.4 2.3-0.6 3.6-0.6 1.4 0 2.6 0.2 3.7 0.6C112.9 9.9 113.8 10.5 114.5 11.2zM110.7 21.6c0.2-0.6 0.4-1.2 0.5-2 0.1-0.8 0.2-1.7 0.2-2.8 0-0.7 0-1.5-0.1-2.4s-0.3-1.6-0.4-2.1c-0.2-0.6-0.6-1.1-1-1.5 -0.4-0.4-1-0.5-1.6-0.5 -0.7 0-1.3 0.2-1.7 0.6 -0.4 0.4-0.8 0.9-1 1.5 -0.2 0.6-0.4 1.2-0.4 2s-0.1 1.6-0.1 2.4c0 1.1 0 2 0.1 2.7 0.1 0.7 0.2 1.4 0.5 2.1 0.2 0.6 0.6 1.1 1 1.5s1 0.5 1.6 0.5c0.6 0 1.1-0.2 1.5-0.5C110.1 22.7 110.5 22.2 110.7 21.6z"/><path d="M134.8 11.1h-3.3c0.4 0.4 0.7 0.9 0.9 1.4 0.2 0.5 0.3 1 0.3 1.5 0 0.7-0.2 1.3-0.6 1.9 -0.4 0.6-0.9 1.1-1.5 1.5 -0.6 0.4-1.3 0.7-2.1 0.9 -0.8 0.2-1.7 0.3-2.7 0.3h-2.4c-0.1 0.1-0.3 0.2-0.4 0.4 -0.1 0.2-0.2 0.4-0.2 0.6 0 0.4 0.2 0.7 0.5 0.9 0.3 0.2 1 0.3 1.9 0.3 0.9 0 1.8 0.1 2.8 0.1 0.9 0.1 1.6 0.1 2 0.1 0.6 0 1.2 0.1 1.7 0.4 0.6 0.2 1.1 0.5 1.5 0.8 0.5 0.3 0.8 0.8 1.1 1.3s0.4 1.2 0.4 1.9c0 0.8-0.2 1.5-0.5 2.1s-0.9 1.2-1.7 1.7c-0.8 0.5-1.7 0.9-2.8 1.2 -1.1 0.3-2.5 0.4-4.1 0.4 -2.6 0-4.6-0.3-6-1 -1.4-0.6-2.1-1.6-2.1-2.9 0-0.8 0.4-1.4 1.1-1.9 0.7-0.5 1.9-0.8 3.4-0.8v-0.2c-0.9-0.3-1.6-0.7-2.1-1.2 -0.5-0.5-0.8-1.1-0.8-1.8 0-0.4 0.1-0.8 0.3-1.1 0.2-0.3 0.5-0.5 0.8-0.8 0.3-0.2 0.6-0.4 1-0.5 0.4-0.1 0.7-0.2 1-0.3v-0.2c-1.3-0.5-2.3-1.1-3-1.8s-1-1.6-1-2.6c0-1.5 0.7-2.6 2-3.5s3.1-1.3 5.1-1.3c0.7 0 1.3 0.1 2 0.2 0.6 0.1 1.1 0.2 1.4 0.3h5.8V11.1zM130.2 26.5c0-0.3-0.1-0.7-0.3-1 -0.2-0.3-0.6-0.6-1.3-0.8 -0.4-0.1-0.9-0.1-1.8-0.1 -0.8 0-2 0-3.4 0 -0.3 0.3-0.6 0.7-0.9 1.1 -0.2 0.4-0.4 0.9-0.4 1.5 0 0.2 0.1 0.5 0.2 0.8s0.4 0.6 0.7 0.8c0.3 0.3 0.7 0.5 1.2 0.7 0.4 0.2 1.1 0.2 1.9 0.2 1.3 0 2.3-0.3 2.9-0.7S130.2 27.6 130.2 26.5zM127.7 13.9c0-1.2-0.2-2.1-0.6-2.8s-0.9-1-1.7-1c-0.4 0-0.7 0.1-1 0.3s-0.5 0.5-0.7 0.8c-0.2 0.3-0.3 0.7-0.3 1.2 -0.1 0.5-0.1 0.9-0.1 1.4 0 1.1 0.2 2 0.6 2.7 0.4 0.7 0.9 1 1.6 1 0.7 0 1.3-0.3 1.7-0.9S127.7 15.1 127.7 13.9z"/><path d="M154.4 24l-7.1 0.4 -0.2-0.2v-2H147c-0.3 0.3-0.7 0.6-1 0.9 -0.3 0.3-0.7 0.6-1.2 0.8 -0.5 0.3-1 0.5-1.4 0.6 -0.5 0.1-1.1 0.2-2 0.2 -1.5 0-2.7-0.5-3.5-1.4s-1.2-2.2-1.2-3.8v-6.7c0-0.4-0.1-0.7-0.2-1 -0.1-0.2-0.3-0.5-0.6-0.7 -0.2-0.1-0.5-0.3-0.8-0.3 -0.3-0.1-0.6-0.1-0.9-0.1V9.6l7.2-0.4 0.2 0.2v10c0 1 0.2 1.8 0.6 2.3 0.4 0.5 0.9 0.7 1.6 0.7 0.7 0 1.3-0.2 1.9-0.6 0.6-0.4 1-0.8 1.2-1.2v-8.1c0-0.3-0.1-0.6-0.2-0.9 -0.1-0.3-0.3-0.5-0.6-0.7 -0.2-0.1-0.4-0.2-0.8-0.2 -0.3 0-0.7-0.1-1-0.1V9.6l7.3-0.4 0.2 0.2V21c0 0.3 0.1 0.6 0.2 0.9 0.1 0.2 0.3 0.5 0.6 0.6 0.2 0.1 0.4 0.2 0.7 0.2 0.3 0 0.6 0.1 0.9 0.1V24z"/><path d="M171 20.7c-0.3 0.6-0.8 1.1-1.3 1.6s-1.1 0.9-1.7 1.3c-0.7 0.4-1.3 0.7-2 0.9 -0.7 0.2-1.5 0.3-2.4 0.3 -1.5 0-2.8-0.2-3.8-0.6 -1.1-0.4-2-1-2.7-1.7 -0.7-0.7-1.2-1.5-1.6-2.5 -0.3-1-0.5-2-0.5-3.1 0-1 0.2-2 0.6-2.9 0.4-0.9 0.9-1.8 1.6-2.5 0.7-0.7 1.5-1.3 2.6-1.7 1-0.4 2.2-0.7 3.5-0.7 1.4 0 2.5 0.2 3.4 0.5 0.9 0.3 1.6 0.8 2.2 1.4 0.6 0.6 1 1.2 1.2 2s0.4 1.6 0.4 2.4v1h-10.1c0 2 0.4 3.6 1.2 4.7 0.8 1.1 2 1.6 3.8 1.6 0.9 0 1.8-0.3 2.5-0.8 0.7-0.5 1.4-1.2 1.9-2L171 20.7zM165.3 15c0-0.6 0-1.2-0.1-1.8s-0.2-1.1-0.3-1.5c-0.2-0.5-0.4-0.8-0.7-1.1 -0.3-0.2-0.7-0.4-1.1-0.4 -0.8 0-1.4 0.4-1.8 1.2 -0.5 0.8-0.7 2-0.7 3.7L165.3 15z"/></svg>