<svg xmlns="http://www.w3.org/2000/svg" viewBox="-219 381 172 32"><style type="text/css">.st0{fill:#FFFFFF;}</style><path class="st0" d="M-188 405.3h-8.9v-1.1c0.2 0 0.4-0.1 0.7-0.1 0.2 0 0.4-0.1 0.6-0.1 0.2-0.1 0.4-0.3 0.4-0.5 0.1-0.2 0.1-0.5 0.1-0.9v-7c0-1-0.2-1.8-0.5-2.3 -0.4-0.5-0.9-0.8-1.6-0.8 -0.4 0-0.8 0.1-1.1 0.2 -0.3 0.1-0.7 0.3-1 0.5 -0.3 0.2-0.5 0.4-0.7 0.6 -0.2 0.2-0.3 0.4-0.4 0.5v8c0 0.4 0 0.7 0.1 0.9 0.1 0.2 0.2 0.4 0.5 0.5 0.2 0.1 0.3 0.2 0.5 0.2 0.2 0.1 0.4 0.1 0.6 0.2v1.1h-8.5v-1.1c0.2 0 0.4 0 0.7-0.1s0.5-0.1 0.6-0.1c0.2-0.1 0.3-0.3 0.4-0.5 0.1-0.2 0.1-0.5 0.1-0.9v-7c0-1-0.2-1.8-0.5-2.3 -0.4-0.5-0.9-0.8-1.6-0.8 -0.4 0-0.8 0.1-1.1 0.2 -0.3 0.1-0.7 0.4-0.9 0.6 -0.3 0.2-0.5 0.4-0.7 0.6 -0.2 0.2-0.3 0.4-0.4 0.5v8c0 0.3 0 0.6 0.1 0.9 0.1 0.3 0.2 0.4 0.5 0.5 0.2 0.2 0.3 0.3 0.5 0.3 0.2 0.1 0.4 0.1 0.7 0.2v1.1h-9v-1.1c0.3 0 0.5 0 0.8-0.1 0.2 0 0.5-0.1 0.6-0.1 0.3-0.1 0.5-0.3 0.7-0.5 0.1-0.2 0.2-0.5 0.2-0.9v-8.7c0-0.3-0.1-0.6-0.3-0.9s-0.4-0.5-0.6-0.7c-0.2-0.1-0.4-0.2-0.7-0.3 -0.3-0.1-0.6-0.1-0.9-0.2v-1.2l7.1-0.4 0.2 0.2v2.1h0.1c0.3-0.2 0.6-0.5 1-0.9 0.4-0.3 0.7-0.6 1.1-0.8 0.4-0.2 0.8-0.4 1.4-0.6 0.6-0.1 1.3-0.2 2-0.2 1.1 0 2.1 0.2 2.9 0.7s1.3 1.2 1.6 2h0.1c0.3-0.3 0.6-0.6 1.1-1 0.4-0.4 0.8-0.7 1.2-0.9 0.4-0.2 0.9-0.5 1.5-0.6 0.5-0.1 1.1-0.2 1.8-0.2 1.5 0 2.7 0.4 3.5 1.3 0.8 0.9 1.2 2.2 1.2 3.8v7.3c0 0.4 0.1 0.7 0.2 0.9 0.1 0.2 0.3 0.4 0.6 0.5 0.2 0.1 0.4 0.1 0.6 0.2 0.2 0.1 0.5 0.1 0.8 0.2C-188 404.2-188 405.3-188 405.3z"/><path class="st0" d="M-172.1 392.2c0.7 0.7 1.3 1.5 1.7 2.5 0.4 1 0.6 2 0.6 3.1 0 1.1-0.2 2.2-0.6 3.1s-0.9 1.8-1.7 2.5c-0.8 0.7-1.7 1.3-2.8 1.7 -1.1 0.4-2.3 0.6-3.8 0.6 -1.2 0-2.3-0.2-3.4-0.5 -1.1-0.3-1.9-0.9-2.7-1.6 -0.8-0.7-1.4-1.5-1.8-2.5 -0.4-1-0.7-2.1-0.7-3.3 0-1.2 0.2-2.3 0.6-3.2 0.4-0.9 1-1.8 1.7-2.5 0.7-0.7 1.6-1.2 2.7-1.6 1.2-0.3 2.4-0.5 3.8-0.5s2.6 0.2 3.7 0.6C-173.8 390.9-172.9 391.5-172.1 392.2zM-175.9 402.6c0.2-0.6 0.4-1.2 0.5-2 0.1-0.8 0.2-1.7 0.2-2.8 0-0.7 0-1.5-0.1-2.4 -0.1-0.9-0.2-1.6-0.4-2.1 -0.2-0.6-0.6-1.1-1-1.5 -0.4-0.4-1-0.5-1.6-0.5 -0.7 0-1.3 0.2-1.7 0.6s-0.8 0.9-1 1.5 -0.4 1.2-0.4 2c-0.1 0.8-0.1 1.6-0.1 2.4 0 1.1 0 2 0.1 2.7 0.1 0.7 0.2 1.4 0.5 2.1 0.2 0.6 0.6 1.1 1 1.5 0.4 0.4 1 0.5 1.6 0.5s1.1-0.2 1.5-0.5C-176.5 403.7-176.2 403.2-175.9 402.6z"/><path class="st0" d="M-148.9 405.3h-9v-1.1c0.2 0 0.4 0 0.7-0.1s0.5-0.1 0.6-0.1c0.2-0.1 0.4-0.3 0.4-0.5 0.1-0.2 0.1-0.5 0.1-0.9v-7c0-1-0.2-1.8-0.6-2.3 -0.4-0.5-0.9-0.8-1.7-0.8 -0.4 0-0.8 0.1-1.1 0.2 -0.3 0.1-0.7 0.3-1 0.5 -0.3 0.2-0.5 0.4-0.7 0.6 -0.2 0.2-0.3 0.4-0.4 0.6v8c0 0.3 0 0.6 0.1 0.9 0.1 0.3 0.3 0.4 0.5 0.5 0.2 0.1 0.4 0.2 0.6 0.2 0.2 0.1 0.5 0.1 0.7 0.2v1.1h-9.1v-1.1c0.2 0 0.5 0 0.8-0.1 0.3 0 0.5-0.1 0.7-0.1 0.3-0.1 0.5-0.3 0.7-0.5 0.2-0.2 0.2-0.5 0.2-0.9v-8.7c0-0.3-0.1-0.6-0.2-0.9 -0.2-0.3-0.4-0.5-0.6-0.7 -0.2-0.1-0.4-0.2-0.7-0.3 -0.3-0.1-0.6-0.1-0.9-0.2v-1.2l7.1-0.4 0.2 0.2v2.2h0.1c0.3-0.2 0.6-0.5 1-0.9 0.4-0.3 0.8-0.6 1.1-0.9 0.4-0.2 0.9-0.4 1.5-0.6 0.5-0.1 1.2-0.2 1.9-0.2 1.6 0 2.8 0.5 3.7 1.4 0.8 0.9 1.2 2.1 1.2 3.7v7.3c0 0.4 0.1 0.7 0.2 0.9 0.1 0.2 0.3 0.4 0.6 0.5 0.2 0.1 0.4 0.1 0.6 0.2 0.2 0.1 0.5 0.1 0.8 0.2L-148.9 405.3 -148.9 405.3z"/><path class="st0" d="M-133 392.2c0.7 0.7 1.3 1.5 1.7 2.5 0.4 1 0.6 2 0.6 3.1 0 1.1-0.2 2.2-0.6 3.1s-0.9 1.8-1.7 2.5c-0.8 0.7-1.7 1.3-2.8 1.7 -1.1 0.4-2.3 0.6-3.8 0.6 -1.2 0-2.3-0.2-3.4-0.5 -1.1-0.3-1.9-0.9-2.7-1.6 -0.8-0.7-1.4-1.5-1.8-2.5 -0.4-1-0.7-2.1-0.7-3.3 0-1.2 0.2-2.3 0.6-3.2s1-1.8 1.7-2.5c0.7-0.7 1.6-1.2 2.7-1.6 1.3-0.3 2.5-0.5 3.8-0.5 1.4 0 2.6 0.2 3.7 0.6C-134.6 390.9-133.7 391.5-133 392.2zM-136.8 402.6c0.2-0.6 0.4-1.2 0.5-2 0.1-0.8 0.2-1.7 0.2-2.8 0-0.7 0-1.5-0.1-2.4 -0.1-0.9-0.2-1.6-0.4-2.1 -0.2-0.6-0.6-1.1-1-1.5 -0.4-0.4-1-0.5-1.6-0.5 -0.7 0-1.3 0.2-1.7 0.6 -0.4 0.4-0.8 0.9-1 1.5 -0.2 0.6-0.4 1.2-0.4 2 -0.1 0.8-0.1 1.6-0.1 2.4 0 1.1 0 2 0.1 2.7s0.2 1.4 0.5 2.1c0.2 0.6 0.6 1.1 1 1.5s1 0.5 1.6 0.5c0.6 0 1.1-0.2 1.5-0.5C-137.4 403.7-137.1 403.2-136.8 402.6z"/><path class="st0" d="M-120.4 405.3h-9.4v-1.1c0.3 0 0.5 0 0.8-0.1s0.5-0.1 0.7-0.1c0.3-0.1 0.5-0.3 0.7-0.5 0.1-0.2 0.2-0.5 0.2-0.9V386c0-0.4-0.1-0.7-0.2-1.1 -0.2-0.3-0.4-0.6-0.6-0.7 -0.2-0.1-0.5-0.3-0.9-0.4 -0.4-0.1-0.8-0.2-1.1-0.2v-1.1l7.5-0.4 0.2 0.2v20c0 0.4 0.1 0.7 0.2 0.9 0.1 0.2 0.3 0.4 0.6 0.5 0.2 0.1 0.4 0.2 0.6 0.2 0.2 0.1 0.5 0.1 0.8 0.2L-120.4 405.3 -120.4 405.3z"/><path class="st0" d="M-104.5 392.2c0.7 0.7 1.3 1.5 1.7 2.5 0.4 1 0.6 2 0.6 3.1 0 1.1-0.2 2.2-0.6 3.1 -0.4 1-0.9 1.8-1.7 2.5 -0.8 0.7-1.7 1.3-2.8 1.7 -1.1 0.4-2.3 0.6-3.8 0.6 -1.2 0-2.3-0.2-3.4-0.5 -1-0.3-1.9-0.9-2.7-1.6 -0.8-0.7-1.4-1.5-1.8-2.5s-0.7-2.1-0.7-3.3c0-1.2 0.2-2.3 0.6-3.2s1-1.8 1.7-2.5c0.7-0.7 1.6-1.2 2.7-1.6s2.3-0.6 3.6-0.6c1.4 0 2.6 0.2 3.7 0.6C-106.1 390.9-105.2 391.5-104.5 392.2zM-108.3 402.6c0.2-0.6 0.4-1.2 0.5-2 0.1-0.8 0.2-1.7 0.2-2.8 0-0.7 0-1.5-0.1-2.4s-0.3-1.6-0.4-2.1c-0.2-0.6-0.6-1.1-1-1.5 -0.4-0.4-1-0.5-1.6-0.5 -0.7 0-1.3 0.2-1.7 0.6 -0.4 0.4-0.8 0.9-1 1.5s-0.4 1.2-0.4 2c0 0.8-0.1 1.6-0.1 2.4 0 1.1 0 2 0.1 2.7s0.2 1.4 0.5 2.1c0.2 0.6 0.6 1.1 1 1.5s1 0.5 1.6 0.5 1.1-0.2 1.5-0.5C-108.9 403.7-108.5 403.2-108.3 402.6z"/><path class="st0" d="M-84.2 392.1h-3.3c0.4 0.4 0.7 0.9 0.9 1.4s0.3 1 0.3 1.5c0 0.7-0.2 1.3-0.6 1.9 -0.4 0.6-0.9 1.1-1.5 1.5s-1.3 0.7-2.1 0.9c-0.8 0.2-1.7 0.3-2.7 0.3h-2.4c-0.1 0.1-0.3 0.2-0.4 0.4s-0.2 0.4-0.2 0.6c0 0.4 0.2 0.7 0.5 0.9s1 0.3 1.9 0.3 1.8 0.1 2.8 0.1c0.9 0.1 1.6 0.1 2 0.1 0.6 0 1.2 0.1 1.7 0.4 0.6 0.2 1.1 0.5 1.5 0.8 0.5 0.3 0.8 0.8 1.1 1.3s0.4 1.2 0.4 1.9c0 0.8-0.2 1.5-0.5 2.1s-0.9 1.2-1.7 1.7 -1.7 0.9-2.8 1.2c-1.1 0.3-2.5 0.4-4.1 0.4 -2.6 0-4.6-0.3-6-1 -1.4-0.6-2.1-1.6-2.1-2.9 0-0.8 0.4-1.4 1.1-1.9s1.9-0.8 3.4-0.8V405c-0.9-0.3-1.6-0.7-2.1-1.2s-0.8-1.1-0.8-1.8c0-0.4 0.1-0.8 0.3-1.1 0.2-0.3 0.5-0.5 0.8-0.8 0.3-0.2 0.6-0.4 1-0.5s0.7-0.2 1-0.3v-0.2c-1.3-0.5-2.3-1.1-3-1.8 -0.7-0.7-1-1.6-1-2.6 0-1.5 0.7-2.6 2-3.5 1.3-0.9 3.1-1.3 5.1-1.3 0.7 0 1.3 0.1 2 0.2 0.6 0.1 1.1 0.2 1.4 0.3h5.8v1.7H-84.2zM-88.8 407.5c0-0.3-0.1-0.7-0.3-1s-0.6-0.6-1.3-0.8c-0.4-0.1-0.9-0.1-1.8-0.1 -0.8 0-2 0-3.4 0 -0.3 0.3-0.6 0.7-0.9 1.1 -0.2 0.4-0.4 0.9-0.4 1.5 0 0.2 0.1 0.5 0.2 0.8s0.4 0.6 0.7 0.8c0.3 0.3 0.7 0.5 1.2 0.7 0.4 0.2 1.1 0.2 1.9 0.2 1.3 0 2.3-0.3 2.9-0.7S-88.8 408.6-88.8 407.5zM-91.3 394.9c0-1.2-0.2-2.1-0.6-2.8 -0.4-0.7-0.9-1-1.7-1 -0.4 0-0.7 0.1-1 0.3 -0.3 0.2-0.5 0.5-0.7 0.8 -0.2 0.3-0.3 0.7-0.3 1.2 -0.1 0.5-0.1 0.9-0.1 1.4 0 1.1 0.2 2 0.6 2.7s0.9 1 1.6 1 1.3-0.3 1.7-0.9S-91.3 396.1-91.3 394.9z"/><path class="st0" d="M-64.6 405l-7.1 0.4 -0.2-0.2v-2H-72c-0.3 0.3-0.7 0.6-1 0.9 -0.3 0.3-0.7 0.6-1.2 0.8 -0.5 0.3-1 0.5-1.4 0.6 -0.5 0.1-1.1 0.2-2 0.2 -1.5 0-2.7-0.5-3.5-1.4 -0.8-0.9-1.2-2.2-1.2-3.8v-6.7c0-0.4-0.1-0.7-0.2-1 -0.1-0.2-0.3-0.5-0.6-0.7 -0.2-0.1-0.5-0.3-0.8-0.3 -0.3-0.1-0.6-0.1-0.9-0.1v-1.1l7.2-0.4 0.2 0.2v10c0 1 0.2 1.8 0.6 2.3 0.4 0.5 0.9 0.7 1.6 0.7 0.7 0 1.3-0.2 1.9-0.6 0.6-0.4 1-0.8 1.2-1.2v-8.1c0-0.3-0.1-0.6-0.2-0.9 -0.1-0.3-0.3-0.5-0.6-0.7 -0.2-0.1-0.4-0.2-0.8-0.2 -0.3 0-0.7-0.1-1-0.1v-1l7.3-0.4 0.2 0.2V402c0 0.3 0.1 0.6 0.2 0.9 0.1 0.2 0.3 0.5 0.6 0.6 0.2 0.1 0.4 0.2 0.7 0.2s0.6 0.1 0.9 0.1v1.2H-64.6z"/><path class="st0" d="M-48 401.7c-0.3 0.6-0.8 1.1-1.3 1.6s-1.1 0.9-1.7 1.3c-0.7 0.4-1.3 0.7-2 0.9s-1.5 0.3-2.4 0.3c-1.5 0-2.8-0.2-3.8-0.6 -1.1-0.4-2-1-2.7-1.7s-1.2-1.5-1.6-2.5c-0.3-1-0.5-2-0.5-3.1 0-1 0.2-2 0.6-2.9 0.4-0.9 0.9-1.8 1.6-2.5 0.7-0.7 1.5-1.3 2.6-1.7 1-0.4 2.2-0.7 3.5-0.7 1.4 0 2.5 0.2 3.4 0.5 0.9 0.3 1.6 0.8 2.2 1.4 0.6 0.6 1 1.2 1.2 2s0.4 1.6 0.4 2.4v1h-10.1c0 2 0.4 3.6 1.2 4.7s2 1.6 3.8 1.6c0.9 0 1.8-0.3 2.5-0.8s1.4-1.2 1.9-2L-48 401.7zM-53.7 396c0-0.6 0-1.2-0.1-1.8 -0.1-0.6-0.2-1.1-0.3-1.5 -0.2-0.5-0.4-0.8-0.7-1.1 -0.3-0.2-0.7-0.4-1.1-0.4 -0.8 0-1.4 0.4-1.8 1.2 -0.5 0.8-0.7 2-0.7 3.7L-53.7 396z"/></svg>